<svg xmlns="http://www.w3.org/2000/svg" xmlns:xlink="http://www.w3.org/1999/xlink" id="Layer_1" data-name="Layer 1" viewBox="198.87 158.6 439.46 82.66"><defs><style>.cls-1{fill:none;}.cls-2{clip-path:url(#clip-path);}.cls-3{fill:#c5987c;}</style><clipPath id="clip-path"><rect class="cls-1" width="841.89" height="377.53"/></clipPath></defs><g class="cls-2"><g class="cls-2"><path class="cls-3" d="M198.87,212.76c2.1,0,7-12.68,11.86-25.07h.15c-4.81,13.21-7.06,25.07-1.73,25.07v.15H198.87Zm15.76-35.5,5.86-15.92c.29-.82.89-2.55-.08-2.55v-.15h7.28v.15c-1.12,0,.45,4.05,1.35,6.46l12.69,34.15c4.35,11.71,5.55,13.36,7.43,13.36v.15H239.1v-.15c2,0,1.8-1.5-7.81-27.25l-7.58-20.26c-.9-2.48-1.65-4.21-2.17-5.41L215,177.78c-6.61,18,1.2,22.67,6.53,22.67,6.83,0,10.51-4.95,12.16-6.68h.15c-1.73,1.88-5.86,7.21-12.31,7.21-5.18,0-14-4.51-6.91-23.72"/><path class="cls-3" d="M254.64,177.41c2.48,0,7.66-2.71,7.66-3.31h.15V197c-.07,12.16.38,15.76,2.48,15.76v.15H254.64v-.15c2.11,0,2.56-3.6,2.56-15.76,0-16.74-.45-19.44-2.56-19.44Zm8.49,5.48c5.25-11.11,21.32-11.49,21.32,10V197c0,12.16-.46,15.76-2.48,15.76v.15h10.21v-.15c-2.11,0-2.48-3.6-2.48-15.76v-4.13c0-13.81-6-18.62-14.79-18.62-5.78,0-9.91,4.13-11.93,8.64Z"/><path class="cls-3" d="M299.16,177.41c2.48,0,7.66-2.71,7.66-3.31H307V197c-.08,12.16.37,15.76,2.48,15.76v.15H299.16v-.15c2.1,0,2.55-3.6,2.55-15.76,0-16.74-.45-19.44-2.55-19.44Zm8.49,5.48c5.25-11.11,21.31-11.49,21.31,10V197c0,12.16-.45,15.76-2.47,15.76v.15h10.2v-.15c-2.1,0-2.47-3.6-2.47-15.76v-4.13c0-13.81-6-18.62-14.79-18.62-5.78,0-9.91,4.13-11.94,8.64Z"/><path class="cls-3" d="M377.08,211.41a5.82,5.82,0,0,1-4.95,2.63c-2,0-4.36-1.35-4.36-5.33v-15a58.77,58.77,0,0,0-.22-8.49c-2,9.31-19.14,2.93-19.14,17.57,0,4.28,2,10.43,8.7,10.43s9.09-5.18,10-7.88h.15C366.35,208,364,214,356.44,214c-10.36,0-13.51-6.76-13.51-11.26,0-16.22,24.24-7.21,24.32-19.44-.9-4.51-3.31-8.56-8.93-8.56-7.14,0-10.59,8.63-10.59,11.56h-.15c0-2.1-2-8.48-3.23-8.48v-.15c2,0,7.28-3.46,13.29-3.46,11.86,0,15.39,6.23,15.39,19.82,0,14.11-.45,18.62,1.72,18.62a3.21,3.21,0,0,0,2.18-1.28Z"/><path class="cls-3" d="M400.89,160.22v5.63c.22,34.3,1.12,46.91,5.1,46.91v.15H395.71v-.15c4,0,5.1-12.61,5-46.91v-5.63ZM424.53,214c-5.1,0-6.15-2.1-9.38-12.09l-11.86-36.7c-1.2-4.06-1.5-6.46-5.71-6.46l-.07-.15h10.36v.15c-.68,0,1,5.63,1.72,8l11.34,35.35c2.77,8.64,4.05,10.21,5.85,10.21,11.34,0,19.3-33.55,19.3-52.09h.15c0,14.56-5.71,53.82-21.7,53.82m22.6-17c.07,12.16-.38,15.76-2.48,15.76l.07.15h10.21v-.15c-2.1,0-2.55-3.6-2.55-15.76V173.73c.07-12.69.6-14.94,2.55-14.94v-.15H444.42v.15c1.5,0,2.71.75,2.71,3.53Z"/><path class="cls-3" d="M480,214c-10.36,0-18.09-8.11-18.09-19.67,0-11.93,7.06-20.12,18.09-20.12,10.28,0,18,8.11,18,19.67,0,11.94-7,20.12-18,20.12m-.75-39.26c-5.11,0-11.86,4.2-11.86,18.54,0,11.64,6.3,20.19,13.21,20.19,5.18,0,11.93-4.2,11.93-18.54,0-11.63-6.3-20.19-13.28-20.19"/><path class="cls-3" d="M505,177.41c2.48,0,7.66-2.71,7.66-3.31h.15V197c-.08,12.16.37,15.76,2.47,15.76v.15H505v-.15c2.1,0,2.55-3.6,2.55-15.76,0-16.74-.45-19.44-2.55-19.44Zm8.48,5.48c5.26-11.11,21.32-11.49,21.32,10V197c0,12.16-.45,15.76-2.48,15.76v.15h10.21v-.15c-2.1,0-2.48-3.6-2.48-15.76v-4.13c0-13.81-6-18.62-14.78-18.62-5.78,0-9.91,4.13-11.94,8.64Z"/><path class="cls-3" d="M548.77,177.41c2.48,0,7.66-2.71,7.66-3.31h.15V197c-.07,12.16.38,15.76,2.48,15.76v.15H548.77v-.15c2.11,0,2.56-3.6,2.56-15.76,0-16.74-.45-19.44-2.56-19.44Zm4.66-13a3.71,3.71,0,0,1,3.75,3.75,3.77,3.77,0,0,1-3.75,3.76,3.81,3.81,0,0,1-3.75-3.76,3.76,3.76,0,0,1,3.75-3.75"/><path class="cls-3" d="M583.38,174.78c-5.78,0-12.61,4.88-12.61,18.54,0,12.46,8.11,18.84,15.24,18.84,4.2,0,7.81-.9,11-4.58h.15A17.49,17.49,0,0,1,583.38,214c-10.36,0-18.09-8.11-18.09-19.67,0-11.93,7.05-20.12,18.09-20.12,6,0,11.71,3.46,13.74,3.46v.15c-1.21,0-3.23,6.38-3.23,8.48h-.15c0-2.93-2-11.56-10.36-11.56"/><path class="cls-3" d="M638.33,211.41a5.82,5.82,0,0,1-5,2.63c-2,0-4.36-1.35-4.36-5.33v-15a58.77,58.77,0,0,0-.22-8.49c-2,9.31-19.14,2.93-19.14,17.57,0,4.28,2,10.43,8.7,10.43s9.09-5.18,10-7.88h.15c-.9,2.63-3.23,8.71-10.81,8.71-10.36,0-13.51-6.76-13.51-11.26,0-16.22,24.24-7.21,24.32-19.44-.9-4.51-3.31-8.56-8.94-8.56-7.13,0-10.58,8.63-10.58,11.56h-.15c0-2.1-2-8.48-3.23-8.48v-.15c2,0,7.28-3.46,13.29-3.46,11.86,0,15.39,6.23,15.39,19.82,0,14.11-.45,18.62,1.72,18.62a3.21,3.21,0,0,0,2.18-1.28Z"/><path class="cls-3" d="M302.35,226.68h2.27a5.48,5.48,0,0,1,2.09.32,2.57,2.57,0,0,1,1.16,1,2.72,2.72,0,0,1,.42,1.49,2.65,2.65,0,0,1-.37,1.39,2.76,2.76,0,0,1-1.09,1,4.42,4.42,0,0,1,1.38.71,2.69,2.69,0,0,1,.74,1,3,3,0,0,1,.27,1.26,3.08,3.08,0,0,1-1,2.34,3.79,3.79,0,0,1-2.71,1h-3.15Zm1.12,1.12v3.68h.66a5.06,5.06,0,0,0,1.76-.23,1.88,1.88,0,0,0,.89-.7,1.82,1.82,0,0,0,.33-1.06,1.5,1.5,0,0,0-.55-1.24,2.77,2.77,0,0,0-1.76-.45Zm0,4.83V237h1.43a4.92,4.92,0,0,0,1.84-.25,2,2,0,0,0,.94-.77,1.92,1.92,0,0,0,.36-1.13,2,2,0,0,0-.5-1.33,2.58,2.58,0,0,0-1.38-.78,10.31,10.31,0,0,0-2-.14Z"/><path class="cls-3" d="M330.93,235.34l.92.48a4.87,4.87,0,0,1-1.05,1.43,4.05,4.05,0,0,1-1.33.84,4.93,4.93,0,0,1-1.68.28,4.06,4.06,0,0,1-3.25-1.36,4.66,4.66,0,0,1-.18-6,4.06,4.06,0,0,1,3.37-1.6,4.19,4.19,0,0,1,3.46,1.64,4.58,4.58,0,0,1,.94,2.9H324.5a3.45,3.45,0,0,0,.94,2.43,3,3,0,0,0,2.26.94,3.63,3.63,0,0,0,1.26-.22,3.3,3.3,0,0,0,1-.6,5,5,0,0,0,.93-1.2m0-2.29a3.59,3.59,0,0,0-.64-1.39,3,3,0,0,0-1.1-.85,3.45,3.45,0,0,0-1.45-.32,3.07,3.07,0,0,0-2.14.81,3.65,3.65,0,0,0-1,1.75Z"/><path class="cls-3" d="M355.09,229.67v8.48H354v-1.46a4.63,4.63,0,0,1-1.53,1.26,4.2,4.2,0,0,1-1.87.42,4.16,4.16,0,0,1-3.08-1.31,4.38,4.38,0,0,1-1.27-3.18,4.28,4.28,0,0,1,1.28-3.13,4.19,4.19,0,0,1,3.1-1.3,4.08,4.08,0,0,1,1.89.44,4.32,4.32,0,0,1,1.48,1.33v-1.55Zm-4.36.83a3.28,3.28,0,0,0-2.91,1.71,3.38,3.38,0,0,0-.46,1.71,3.48,3.48,0,0,0,.46,1.71,3.39,3.39,0,0,0,1.24,1.28,3.23,3.23,0,0,0,1.66.45,3.43,3.43,0,0,0,1.7-.45,3.14,3.14,0,0,0,1.23-1.22,3.51,3.51,0,0,0,.44-1.74,3.4,3.4,0,0,0-1-2.46,3.23,3.23,0,0,0-2.39-1"/><path class="cls-3" d="M369.88,229.67H371v4a8,8,0,0,0,.16,2,2.24,2.24,0,0,0,.89,1.24,2.74,2.74,0,0,0,1.58.45,2.69,2.69,0,0,0,1.55-.44,2.28,2.28,0,0,0,.87-1.16,8,8,0,0,0,.17-2.08v-4h1.11v4.16a6.43,6.43,0,0,1-.41,2.64,3.1,3.1,0,0,1-1.23,1.4,4.51,4.51,0,0,1-4.13,0,3.15,3.15,0,0,1-1.24-1.41,6.9,6.9,0,0,1-.41-2.71Z"/><polygon class="cls-3" points="393.15 226.51 394.24 226.51 394.24 229.67 395.98 229.67 395.98 230.61 394.24 230.61 394.24 238.15 393.15 238.15 393.15 230.61 391.66 230.61 391.66 229.67 393.15 229.67 393.15 226.51"/><polygon class="cls-3" points="409.17 229.67 410.33 229.67 413.24 236.2 416.08 229.67 417.24 229.67 412.18 241.26 411.02 241.26 412.66 237.51 409.17 229.67"/><path class="cls-3" d="M438.56,236l1-.58c.69,1.26,1.48,1.89,2.38,1.89a2.28,2.28,0,0,0,1.09-.26,2,2,0,0,0,.77-.73,1.92,1.92,0,0,0,.26-1,2,2,0,0,0-.39-1.13,9.41,9.41,0,0,0-2-1.84,10.28,10.28,0,0,1-1.79-1.56,2.94,2.94,0,0,1-.61-1.76,2.63,2.63,0,0,1,.36-1.36,2.55,2.55,0,0,1,1-1,2.88,2.88,0,0,1,1.42-.36,3,3,0,0,1,1.51.4,5.29,5.29,0,0,1,1.5,1.48l-.94.71a4.53,4.53,0,0,0-1.1-1.13,2,2,0,0,0-1-.27,1.56,1.56,0,0,0-1.13.42,1.38,1.38,0,0,0-.44,1,1.87,1.87,0,0,0,.15.73,2.88,2.88,0,0,0,.57.76c.15.15.65.53,1.49,1.15a8.37,8.37,0,0,1,2,2,3.12,3.12,0,0,1,.55,1.72,2.93,2.93,0,0,1-.94,2.17,3.22,3.22,0,0,1-2.31.92,3.36,3.36,0,0,1-1.89-.56,5,5,0,0,1-1.57-1.87"/><path class="cls-3" d="M460,226.39h1.09v4.8a4.67,4.67,0,0,1,1.46-1.31,3.55,3.55,0,0,1,1.73-.43,3,3,0,0,1,1.68.48,2.82,2.82,0,0,1,1.09,1.3,6.72,6.72,0,0,1,.35,2.55v4.37H466.3V234.1a10.2,10.2,0,0,0-.12-2,2.19,2.19,0,0,0-.73-1.26,2.15,2.15,0,0,0-1.4-.43,2.71,2.71,0,0,0-1.78.66,3.09,3.09,0,0,0-1,1.62,11.49,11.49,0,0,0-.16,2.31v3.11H460Z"/><path class="cls-3" d="M490.66,229.67v8.48h-1.08v-1.46A4.66,4.66,0,0,1,488,238a4.29,4.29,0,0,1-4.94-.89,4.38,4.38,0,0,1-1.28-3.18,4.29,4.29,0,0,1,1.29-3.13,4.19,4.19,0,0,1,3.09-1.3,4.12,4.12,0,0,1,1.9.44,4.32,4.32,0,0,1,1.48,1.33v-1.55Zm-4.37.83a3.31,3.31,0,0,0-1.68.45,3.38,3.38,0,0,0-1.23,1.26,3.47,3.47,0,0,0-.45,1.71,3.38,3.38,0,0,0,.46,1.71,3.44,3.44,0,0,0,1.23,1.28,3.27,3.27,0,0,0,1.67.45,3.4,3.4,0,0,0,1.69-.45,3.16,3.16,0,0,0,1.24-1.22,3.51,3.51,0,0,0,.43-1.74,3.36,3.36,0,0,0-1-2.46,3.21,3.21,0,0,0-2.39-1"/><path class="cls-3" d="M513.82,231.43,513,232a3.61,3.61,0,0,0-3.06-1.49,3.55,3.55,0,0,0-2.58,1,3.29,3.29,0,0,0-1,2.43,3.37,3.37,0,0,0,.47,1.74,3.22,3.22,0,0,0,1.29,1.27,3.77,3.77,0,0,0,1.84.45,3.71,3.71,0,0,0,3.06-1.49l.86.57a4,4,0,0,1-1.63,1.42,5.19,5.19,0,0,1-2.34.51,4.64,4.64,0,0,1-3.34-1.28,4.16,4.16,0,0,1-1.32-3.11,4.48,4.48,0,0,1,2.32-3.94,4.91,4.91,0,0,1,2.43-.59,5.18,5.18,0,0,1,1.62.25,4.49,4.49,0,0,1,1.33.68,3.38,3.38,0,0,1,.93,1.05"/><polygon class="cls-3" points="528.38 226.39 529.48 226.39 529.48 233.09 533.41 229.67 535.01 229.67 530.35 233.71 535.29 238.15 533.75 238.15 529.48 234.33 529.48 238.15 528.38 238.15 528.38 226.39"/></g></g></svg>