<?xml version="1.0" encoding="utf-8"?>
<!-- Generator: Adobe Illustrator 25.0.0, SVG Export Plug-In . SVG Version: 6.00 Build 0)  -->
<svg version="1.1" id="Layer_1" xmlns="http://www.w3.org/2000/svg" xmlns:xlink="http://www.w3.org/1999/xlink" x="0px" y="0px"
	 viewBox="0 0 841.89 377.53" style="enable-background:new 0 0 841.89 377.53;" xml:space="preserve">
<style type="text/css">
	.st0{fill:#C5987C;}
</style>
<path class="st0" d="M102.87,208.57c3.05,0,10.25-18.42,17.22-36.4h0.22c-6.97,19.18-10.25,36.4-2.51,36.4v0.22h-14.93V208.57z
	 M125.76,157.03l8.5-23.1c0.43-1.2,1.31-3.7-0.11-3.7V130h10.57v0.22c-1.63,0,0.65,5.89,1.96,9.37l18.42,49.58
	c6.32,17,8.06,19.4,10.79,19.4v0.22h-14.61v-0.22c2.95,0,2.62-2.18-11.33-39.56l-11.01-29.42c-1.31-3.6-2.4-6.1-3.16-7.85
	l-9.48,26.05c-9.59,26.16,1.74,32.91,9.48,32.91c9.92,0,15.26-7.19,17.65-9.7h0.22c-2.51,2.72-8.5,10.46-17.87,10.46
	C128.27,191.46,115.41,184.92,125.76,157.03"/>
<path class="st0" d="M183.85,157.24c3.59,0,11.12-3.92,11.12-4.79h0.22v33.24c-0.11,17.66,0.54,22.89,3.6,22.89v0.22h-14.93v-0.22
	c3.05,0,3.7-5.23,3.7-22.89c0-24.3-0.65-28.22-3.7-28.22V157.24z M196.17,165.2c7.63-16.13,30.95-16.67,30.95,14.49v5.99
	c0,17.66-0.66,22.89-3.6,22.89v0.22h14.82v-0.22c-3.05,0-3.6-5.23-3.6-22.89v-5.99c0-20.05-8.72-27.03-21.47-27.03
	c-8.39,0-14.39,5.99-17.33,12.53H196.17z"/>
<path class="st0" d="M248.48,157.24c3.6,0,11.12-3.92,11.12-4.79h0.22v33.24c-0.11,17.66,0.54,22.89,3.6,22.89v0.22h-14.93v-0.22
	c3.05,0,3.7-5.23,3.7-22.89c0-24.3-0.65-28.22-3.7-28.22V157.24z M260.8,165.2c7.63-16.13,30.95-16.67,30.95,14.49v5.99
	c0,17.66-0.66,22.89-3.6,22.89v0.22h14.82v-0.22c-3.05,0-3.6-5.23-3.6-22.89v-5.99c0-20.05-8.72-27.03-21.47-27.03
	c-8.39,0-14.39,5.99-17.33,12.53H260.8z"/>
<path class="st0" d="M361.61,206.61c0,0.44-2.72,3.82-7.19,3.82c-2.84,0-6.32-1.96-6.32-7.74v-21.8c0-2.18,0.33-7.08-0.33-12.31
	c-2.94,13.51-27.79,4.25-27.79,25.5c0,6.21,2.94,15.15,12.64,15.15c9.92,0,13.19-7.52,14.49-11.44h0.22
	c-1.31,3.81-4.69,12.64-15.7,12.64c-15.04,0-19.62-9.81-19.62-16.35c0-23.54,35.2-10.46,35.31-28.23
	c-1.31-6.54-4.8-12.42-12.97-12.42c-10.35,0-15.37,12.53-15.37,16.78h-0.22c0-3.05-2.94-12.31-4.69-12.31v-0.22
	c2.94,0,10.57-5.01,19.29-5.01c17.22,0,22.34,9.04,22.34,28.77c0,20.49-0.65,27.03,2.51,27.03c1.63,0,3.16-1.75,3.16-1.85H361.61z"
	/>
<path class="st0" d="M396.17,132.29v8.17c0.33,49.8,1.63,68.11,7.41,68.11v0.22h-14.93v-0.22c5.78,0,7.41-18.31,7.3-68.11v-8.17
	H396.17z M430.49,210.42c-7.41,0-8.94-3.05-13.62-17.54l-17.22-53.29c-1.74-5.88-2.18-9.37-8.28-9.37l-0.11-0.22h15.04v0.22
	c-0.98,0,1.42,8.17,2.51,11.55l16.45,51.33c4.03,12.53,5.88,14.82,8.5,14.82c16.45,0,28.01-48.71,28.01-75.63h0.22
	C461.99,153.43,453.71,210.42,430.49,210.42 M463.3,185.69c0.11,17.66-0.54,22.89-3.59,22.89l0.11,0.22h14.82v-0.22
	c-3.05,0-3.7-5.23-3.7-22.89V151.9c0.11-18.42,0.87-21.69,3.7-21.69V130h-15.26v0.22c2.18,0,3.92,1.09,3.92,5.12V185.69z"/>
<path class="st0" d="M511.04,210.43c-15.04,0-26.27-11.77-26.27-28.55c0-17.33,10.25-29.21,26.27-29.21
	c14.93,0,26.15,11.77,26.15,28.55C537.19,198.55,526.95,210.43,511.04,210.43 M509.95,153.43c-7.41,0-17.22,6.1-17.22,26.92
	c0,16.89,9.16,29.31,19.18,29.31c7.52,0,17.33-6.1,17.33-26.92C529.23,165.85,520.08,153.43,509.95,153.43"/>
<path class="st0" d="M547.33,157.24c3.59,0,11.12-3.92,11.12-4.79h0.22v33.24c-0.11,17.66,0.54,22.89,3.6,22.89v0.22h-14.93v-0.22
	c3.05,0,3.7-5.23,3.7-22.89c0-24.3-0.65-28.22-3.7-28.22V157.24z M559.65,165.2c7.63-16.13,30.95-16.67,30.95,14.49v5.99
	c0,17.66-0.66,22.89-3.6,22.89v0.22h14.82v-0.22c-3.05,0-3.6-5.23-3.6-22.89v-5.99c0-20.05-8.72-27.03-21.47-27.03
	c-8.39,0-14.39,5.99-17.33,12.53H559.65z"/>
<path class="st0" d="M610.87,157.24c3.6,0,11.12-3.92,11.12-4.79h0.22v33.24c-0.11,17.66,0.54,22.89,3.59,22.89v0.22h-14.93v-0.22
	c3.05,0,3.7-5.23,3.7-22.89c0-24.3-0.65-28.22-3.7-28.22V157.24z M617.63,138.39c3.05,0,5.45,2.4,5.45,5.45
	c0,2.94-2.4,5.45-5.45,5.45c-2.94,0-5.45-2.51-5.45-5.45C612.18,140.79,614.68,138.39,617.63,138.39"/>
<path class="st0" d="M661.11,153.43c-8.39,0-18.31,7.08-18.31,26.92c0,18.09,11.77,27.35,22.12,27.35c6.1,0,11.34-1.31,16.02-6.65
	h0.22c-5.12,6.54-12.97,9.37-20.05,9.37c-15.04,0-26.26-11.77-26.26-28.55c0-17.33,10.24-29.21,26.26-29.21
	c8.72,0,17,5.01,19.94,5.01v0.22c-1.75,0-4.69,9.26-4.69,12.31h-0.22C676.15,165.96,673.21,153.43,661.11,153.43"/>
<path class="st0" d="M740.89,206.61c0,0.44-2.72,3.82-7.19,3.82c-2.84,0-6.32-1.96-6.32-7.74v-21.8c0-2.18,0.33-7.08-0.33-12.31
	c-2.94,13.51-27.79,4.25-27.79,25.5c0,6.21,2.94,15.15,12.64,15.15c9.92,0,13.19-7.52,14.49-11.44h0.22
	c-1.31,3.81-4.69,12.64-15.7,12.64c-15.04,0-19.62-9.81-19.62-16.35c0-23.54,35.2-10.46,35.31-28.23
	c-1.31-6.54-4.8-12.42-12.97-12.42c-10.35,0-15.37,12.53-15.37,16.78h-0.22c0-3.05-2.94-12.31-4.69-12.31v-0.22
	c2.94,0,10.57-5.01,19.29-5.01c17.22,0,22.34,9.04,22.34,28.77c0,20.49-0.65,27.03,2.51,27.03c1.63,0,3.16-1.75,3.16-1.85H740.89z"
	/>
<path class="st0" d="M253.11,228.78h3.29c1.32,0,2.33,0.16,3.04,0.47c0.71,0.31,1.27,0.79,1.68,1.44c0.41,0.65,0.61,1.37,0.61,2.16
	c0,0.74-0.18,1.41-0.54,2.02c-0.36,0.61-0.89,1.1-1.59,1.48c0.87,0.29,1.53,0.64,2,1.04c0.47,0.4,0.83,0.88,1.09,1.44
	c0.26,0.56,0.39,1.17,0.39,1.83c0,1.34-0.49,2.47-1.47,3.39c-0.98,0.92-2.29,1.39-3.94,1.39h-4.58V228.78z M254.74,230.41v5.33h0.96
	c1.16,0,2.01-0.11,2.55-0.32c0.54-0.21,0.98-0.55,1.29-1.02c0.32-0.46,0.48-0.98,0.48-1.54c0-0.76-0.27-1.36-0.8-1.79
	c-0.53-0.43-1.38-0.65-2.55-0.65H254.74z M254.74,237.42v6.39h2.06c1.22,0,2.11-0.12,2.68-0.36c0.57-0.24,1.02-0.61,1.37-1.12
	c0.34-0.5,0.52-1.05,0.52-1.64c0-0.74-0.24-1.39-0.72-1.94c-0.48-0.55-1.15-0.93-2-1.13c-0.57-0.14-1.55-0.2-2.96-0.2H254.74z"/>
<path class="st0" d="M294.61,241.35l1.33,0.7c-0.44,0.86-0.95,1.56-1.52,2.08c-0.58,0.53-1.22,0.93-1.94,1.21
	c-0.72,0.27-1.53,0.41-2.44,0.41c-2.01,0-3.58-0.66-4.71-1.98c-1.13-1.32-1.7-2.8-1.7-4.47c0-1.56,0.48-2.96,1.44-4.18
	c1.22-1.55,2.85-2.33,4.88-2.33c2.1,0,3.78,0.8,5.03,2.39c0.89,1.12,1.34,2.53,1.36,4.21h-11.08c0.03,1.43,0.48,2.6,1.37,3.52
	c0.88,0.91,1.98,1.37,3.28,1.37c0.63,0,1.24-0.11,1.83-0.33c0.6-0.22,1.1-0.51,1.52-0.87C293.67,242.73,294.12,242.15,294.61,241.35
	 M294.61,238.03c-0.21-0.84-0.52-1.52-0.93-2.03c-0.4-0.51-0.94-0.91-1.6-1.22c-0.66-0.31-1.36-0.46-2.1-0.46
	c-1.21,0-2.25,0.39-3.12,1.17c-0.64,0.57-1.11,1.41-1.44,2.55H294.61z"/>
<path class="st0" d="M329.68,233.11v12.32h-1.56v-2.12c-0.66,0.81-1.41,1.41-2.23,1.82c-0.83,0.41-1.73,0.61-2.71,0.61
	c-1.75,0-3.23-0.63-4.47-1.9c-1.23-1.27-1.85-2.8-1.85-4.62c0-1.77,0.62-3.29,1.87-4.55c1.24-1.26,2.74-1.89,4.49-1.89
	c1.01,0,1.93,0.21,2.75,0.64c0.82,0.43,1.54,1.08,2.15,1.94v-2.26H329.68z M323.35,234.32c-0.88,0-1.69,0.22-2.44,0.65
	c-0.75,0.43-1.34,1.04-1.78,1.83c-0.44,0.78-0.66,1.61-0.66,2.49c0,0.87,0.22,1.7,0.66,2.49c0.45,0.79,1.04,1.41,1.79,1.85
	c0.75,0.44,1.55,0.66,2.41,0.66c0.87,0,1.69-0.22,2.46-0.66c0.78-0.44,1.38-1.03,1.79-1.78c0.42-0.74,0.63-1.59,0.63-2.52
	c0-1.43-0.47-2.62-1.41-3.57C325.87,234.8,324.72,234.32,323.35,234.32"/>
<path class="st0" d="M351.15,233.11h1.59v5.75c0,1.41,0.07,2.37,0.23,2.9c0.23,0.76,0.66,1.35,1.3,1.79
	c0.64,0.44,1.4,0.66,2.29,0.66s1.63-0.21,2.25-0.64c0.61-0.43,1.04-0.99,1.27-1.68c0.16-0.48,0.24-1.49,0.24-3.03v-5.75h1.62v6.05
	c0,1.7-0.2,2.98-0.59,3.84c-0.4,0.86-0.99,1.53-1.79,2.02c-0.8,0.49-1.79,0.73-2.99,0.73c-1.2,0-2.2-0.24-3.01-0.73
	c-0.8-0.49-1.41-1.17-1.8-2.04c-0.4-0.87-0.6-2.18-0.6-3.93V233.11z"/>
<polygon class="st0" points="384.94,228.54 386.52,228.54 386.52,233.11 389.04,233.11 389.04,234.48 386.52,234.48 386.52,245.43 
	384.94,245.43 384.94,234.48 382.77,234.48 382.77,233.11 384.94,233.11 "/>
<polygon class="st0" points="408.2,233.11 409.87,233.11 414.11,242.6 418.22,233.11 419.9,233.11 412.56,249.94 410.88,249.94 
	413.25,244.5 "/>
<path class="st0" d="M450.86,242.33l1.42-0.85c1,1.84,2.15,2.75,3.45,2.75c0.56,0,1.08-0.13,1.58-0.39
	c0.49-0.26,0.86-0.61,1.12-1.05c0.26-0.44,0.39-0.9,0.39-1.39c0-0.56-0.19-1.11-0.57-1.64c-0.52-0.74-1.47-1.63-2.85-2.67
	c-1.39-1.05-2.25-1.81-2.6-2.28c-0.59-0.79-0.88-1.63-0.88-2.55c0-0.72,0.17-1.39,0.52-1.98c0.34-0.6,0.83-1.07,1.47-1.41
	c0.63-0.34,1.32-0.52,2.06-0.52c0.78,0,1.52,0.19,2.2,0.58c0.68,0.39,1.41,1.1,2.17,2.15l-1.36,1.03c-0.63-0.83-1.16-1.38-1.6-1.64
	c-0.44-0.26-0.92-0.4-1.44-0.4c-0.67,0-1.22,0.2-1.65,0.61c-0.43,0.41-0.64,0.91-0.64,1.51c0,0.36,0.07,0.71,0.23,1.05
	c0.15,0.34,0.43,0.71,0.83,1.11c0.22,0.21,0.93,0.77,2.15,1.67c1.44,1.06,2.43,2.01,2.97,2.84c0.53,0.83,0.8,1.67,0.8,2.5
	c0,1.21-0.46,2.26-1.38,3.15c-0.92,0.89-2.03,1.34-3.35,1.34c-1.01,0-1.93-0.27-2.75-0.81C452.31,244.5,451.55,243.6,450.86,242.33"
	/>
<path class="st0" d="M481.98,228.36h1.59v6.96c0.64-0.84,1.35-1.48,2.12-1.89c0.77-0.42,1.6-0.63,2.5-0.63
	c0.92,0,1.74,0.23,2.45,0.7c0.71,0.47,1.24,1.1,1.58,1.89c0.34,0.79,0.51,2.02,0.51,3.71v6.34h-1.59v-5.88
	c0-1.42-0.06-2.37-0.17-2.84c-0.2-0.81-0.55-1.43-1.07-1.84c-0.51-0.41-1.19-0.62-2.03-0.62c-0.96,0-1.82,0.32-2.58,0.95
	c-0.76,0.63-1.26,1.42-1.5,2.35c-0.15,0.6-0.23,1.72-0.23,3.35v4.52h-1.59V228.36z"/>
<path class="st0" d="M526.49,233.11v12.32h-1.56v-2.12c-0.66,0.81-1.41,1.41-2.23,1.82c-0.83,0.41-1.73,0.61-2.71,0.61
	c-1.74,0-3.23-0.63-4.47-1.9c-1.23-1.27-1.85-2.8-1.85-4.62c0-1.77,0.62-3.29,1.87-4.55c1.24-1.26,2.74-1.89,4.49-1.89
	c1.01,0,1.93,0.21,2.75,0.64c0.82,0.43,1.54,1.08,2.15,1.94v-2.26H526.49z M520.16,234.32c-0.88,0-1.69,0.22-2.44,0.65
	c-0.75,0.43-1.34,1.04-1.78,1.83c-0.44,0.78-0.66,1.61-0.66,2.49c0,0.87,0.22,1.7,0.66,2.49c0.45,0.79,1.04,1.41,1.79,1.85
	c0.75,0.44,1.55,0.66,2.41,0.66c0.87,0,1.69-0.22,2.46-0.66c0.78-0.44,1.38-1.03,1.79-1.78c0.42-0.74,0.63-1.59,0.63-2.52
	c0-1.43-0.47-2.62-1.41-3.57C522.69,234.8,521.53,234.32,520.16,234.32"/>
<path class="st0" d="M560.13,235.67l-1.26,0.78c-1.09-1.44-2.57-2.16-4.44-2.16c-1.5,0-2.75,0.48-3.74,1.45
	c-0.99,0.97-1.49,2.14-1.49,3.52c0,0.9,0.23,1.74,0.68,2.53c0.46,0.79,1.08,1.41,1.88,1.84c0.8,0.44,1.69,0.66,2.68,0.66
	c1.81,0,3.29-0.72,4.43-2.16l1.26,0.83c-0.59,0.89-1.38,1.57-2.37,2.06c-0.99,0.49-2.12,0.73-3.39,0.73c-1.95,0-3.56-0.62-4.85-1.86
	c-1.28-1.24-1.92-2.74-1.92-4.52c0-1.19,0.3-2.3,0.9-3.32c0.6-1.02,1.43-1.82,2.47-2.39c1.05-0.57,2.22-0.86,3.52-0.86
	c0.82,0,1.6,0.12,2.36,0.37c0.76,0.25,1.4,0.57,1.93,0.97C559.31,234.54,559.76,235.05,560.13,235.67"/>
<polygon class="st0" points="581.27,228.36 582.85,228.36 582.85,238.08 588.56,233.11 590.89,233.11 584.12,238.99 591.29,245.43 
	589.06,245.43 582.85,239.88 582.85,245.43 581.27,245.43 "/>
</svg>
